<?xml version="1.0"?>
<svg xmlns="http://www.w3.org/2000/svg" xmlns:xlink="http://www.w3.org/1999/xlink" version="1.1" id="Capa_1" x="0px" y="0px" width="512px" height="512px" viewBox="0 0 611.038 611.038" style="enable-background:new 0 0 611.038 611.038;" xml:space="preserve"><g transform="matrix(-1 0 0 1 611.038 0)"><g>
	<g>
		<polygon points="529.526,157.551 453.188,81.228 216.765,317.942 293.954,393.386   " data-original="#000000" class="active-path" fill="#000000"/>
		<path d="M518.902,15.802l-39.12,39.129l76.338,76.323l39.12-39.13c21.042-21.081,21.08-55.242,0-76.323    C574.164-5.274,539.978-5.26,518.902,15.802z" data-original="#000000" class="active-path" fill="#000000"/>
		<polygon points="139.299,471.76 269.536,416.857 193.681,342.719   " data-original="#000000" class="active-path" fill="#000000"/>
		<polygon points="533.825,224.092 460.198,296.681 460.198,536.465 71.324,536.465 71.324,149.184 315.961,149.184 384.094,77.217     0.002,77.217 0.002,611.038 533.825,611.038   " data-original="#000000" class="active-path" fill="#000000"/>
	</g>
</g></g> </svg>
